<?xml version="1.0" encoding="UTF-8"?>
<!--Generator: Apple Native CoreSVG 123-->
<!DOCTYPE svg
PUBLIC "-//W3C//DTD SVG 1.1//EN"
       "http://www.w3.org/Graphics/SVG/1.1/DTD/svg11.dtd">
<svg version="1.1" xmlns="http://www.w3.org/2000/svg" xmlns:xlink="http://www.w3.org/1999/xlink" width="3300" height="2200">
 <!--glyph: "uni100443.medium", point size: 100.000000, font version: "Version 15.0d7e11", template writer version: "5"-->
 <g id="Notes">
  <rect height="2200" id="artboard" style="fill:white;opacity:1" width="3300" x="0" y="0"/>
  <line id="" style="fill:none;stroke:black;opacity:1;stroke-width:0.5;" x1="263" x2="3036" y1="292" y2="292"/>
  <text style="stroke:none;fill:black;font-family:-apple-system,&quot;SF Pro Display&quot;,&quot;SF Pro Text&quot;,Helvetica,sans-serif;font-weight:bold;" transform="matrix(1 0 0 1 263 322)">Weight/Scale Variations</text>
  <text style="stroke:none;fill:black;font-family:-apple-system,&quot;SF Pro Display&quot;,&quot;SF Pro Text&quot;,Helvetica,sans-serif;text-anchor:middle;" transform="matrix(1 0 0 1 559.711 322)">Ultralight</text>
  <text style="stroke:none;fill:black;font-family:-apple-system,&quot;SF Pro Display&quot;,&quot;SF Pro Text&quot;,Helvetica,sans-serif;text-anchor:middle;" transform="matrix(1 0 0 1 856.422 322)">Thin</text>
  <text style="stroke:none;fill:black;font-family:-apple-system,&quot;SF Pro Display&quot;,&quot;SF Pro Text&quot;,Helvetica,sans-serif;text-anchor:middle;" transform="matrix(1 0 0 1 1153.13 322)">Light</text>
  <text style="stroke:none;fill:black;font-family:-apple-system,&quot;SF Pro Display&quot;,&quot;SF Pro Text&quot;,Helvetica,sans-serif;text-anchor:middle;" transform="matrix(1 0 0 1 1449.84 322)">Regular</text>
  <text style="stroke:none;fill:black;font-family:-apple-system,&quot;SF Pro Display&quot;,&quot;SF Pro Text&quot;,Helvetica,sans-serif;text-anchor:middle;" transform="matrix(1 0 0 1 1746.56 322)">Medium</text>
  <text style="stroke:none;fill:black;font-family:-apple-system,&quot;SF Pro Display&quot;,&quot;SF Pro Text&quot;,Helvetica,sans-serif;text-anchor:middle;" transform="matrix(1 0 0 1 2043.27 322)">Semibold</text>
  <text style="stroke:none;fill:black;font-family:-apple-system,&quot;SF Pro Display&quot;,&quot;SF Pro Text&quot;,Helvetica,sans-serif;text-anchor:middle;" transform="matrix(1 0 0 1 2339.98 322)">Bold</text>
  <text style="stroke:none;fill:black;font-family:-apple-system,&quot;SF Pro Display&quot;,&quot;SF Pro Text&quot;,Helvetica,sans-serif;text-anchor:middle;" transform="matrix(1 0 0 1 2636.69 322)">Heavy</text>
  <text style="stroke:none;fill:black;font-family:-apple-system,&quot;SF Pro Display&quot;,&quot;SF Pro Text&quot;,Helvetica,sans-serif;text-anchor:middle;" transform="matrix(1 0 0 1 2933.4 322)">Black</text>
  <line id="" style="fill:none;stroke:black;opacity:1;stroke-width:0.5;" x1="263" x2="3036" y1="1903" y2="1903"/>
  <g id="" transform="matrix(1 0 0 1 263 1933)">
   <path d="M 9.24805 0.830078 C 13.5547 0.830078 17.1387 -2.74414 17.1387 -7.05078 C 17.1387 -11.3574 13.5449 -14.9316 9.23828 -14.9316 C 4.94141 -14.9316 1.36719 -11.3574 1.36719 -7.05078 C 1.36719 -2.74414 4.95117 0.830078 9.24805 0.830078 Z M 9.24805 -0.654297 C 5.70312 -0.654297 2.87109 -3.49609 2.87109 -7.05078 C 2.87109 -10.6055 5.69336 -13.4473 9.23828 -13.4473 C 12.793 -13.4473 15.6348 -10.6055 15.6445 -7.05078 C 15.6543 -3.49609 12.8027 -0.654297 9.24805 -0.654297 Z M 9.22852 -3.42773 C 9.69727 -3.42773 9.9707 -3.74023 9.9707 -4.25781 L 9.9707 -6.31836 L 12.1973 -6.31836 C 12.6953 -6.31836 13.0371 -6.57227 13.0371 -7.04102 C 13.0371 -7.51953 12.7148 -7.7832 12.1973 -7.7832 L 9.9707 -7.7832 L 9.9707 -10.0098 C 9.9707 -10.5273 9.69727 -10.8496 9.22852 -10.8496 C 8.75977 -10.8496 8.50586 -10.5078 8.50586 -10.0098 L 8.50586 -7.7832 L 6.29883 -7.7832 C 5.78125 -7.7832 5.44922 -7.51953 5.44922 -7.04102 C 5.44922 -6.57227 5.80078 -6.31836 6.29883 -6.31836 L 8.50586 -6.31836 L 8.50586 -4.25781 C 8.50586 -3.75977 8.75977 -3.42773 9.22852 -3.42773 Z"/>
  </g>
  <g id="" transform="matrix(1 0 0 1 281.506 1933)">
   <path d="M 11.709 2.91016 C 17.1582 2.91016 21.6699 -1.60156 21.6699 -7.05078 C 21.6699 -12.4902 17.1484 -17.0117 11.6992 -17.0117 C 6.25977 -17.0117 1.74805 -12.4902 1.74805 -7.05078 C 1.74805 -1.60156 6.26953 2.91016 11.709 2.91016 Z M 11.709 1.25 C 7.09961 1.25 3.41797 -2.44141 3.41797 -7.05078 C 3.41797 -11.6504 7.08984 -15.3516 11.6992 -15.3516 C 16.3086 -15.3516 20 -11.6504 20.0098 -7.05078 C 20.0195 -2.44141 16.3184 1.25 11.709 1.25 Z M 11.6895 -2.41211 C 12.207 -2.41211 12.5195 -2.77344 12.5195 -3.33984 L 12.5195 -6.23047 L 15.5762 -6.23047 C 16.123 -6.23047 16.5039 -6.51367 16.5039 -7.03125 C 16.5039 -7.55859 16.1426 -7.86133 15.5762 -7.86133 L 12.5195 -7.86133 L 12.5195 -10.9277 C 12.5195 -11.5039 12.207 -11.8555 11.6895 -11.8555 C 11.1719 -11.8555 10.8789 -11.4844 10.8789 -10.9277 L 10.8789 -7.86133 L 7.83203 -7.86133 C 7.26562 -7.86133 6.89453 -7.55859 6.89453 -7.03125 C 6.89453 -6.51367 7.28516 -6.23047 7.83203 -6.23047 L 10.8789 -6.23047 L 10.8789 -3.33984 C 10.8789 -2.79297 11.1719 -2.41211 11.6895 -2.41211 Z"/>
  </g>
  <g id="" transform="matrix(1 0 0 1 304.924 1933)">
   <path d="M 14.9707 5.67383 C 21.9336 5.67383 27.6953 -0.078125 27.6953 -7.04102 C 27.6953 -14.0039 21.9238 -19.7559 14.9609 -19.7559 C 8.00781 -19.7559 2.25586 -14.0039 2.25586 -7.04102 C 2.25586 -0.078125 8.01758 5.67383 14.9707 5.67383 Z M 14.9707 3.85742 C 8.93555 3.85742 4.08203 -1.00586 4.08203 -7.04102 C 4.08203 -13.0762 8.92578 -17.9395 14.9609 -17.9395 C 21.0059 -17.9395 25.8594 -13.0762 25.8691 -7.04102 C 25.8789 -1.00586 21.0156 3.85742 14.9707 3.85742 Z M 14.9512 -1.06445 C 15.5176 -1.06445 15.8691 -1.45508 15.8691 -2.06055 L 15.8691 -6.13281 L 20.1074 -6.13281 C 20.6934 -6.13281 21.1133 -6.46484 21.1133 -7.02148 C 21.1133 -7.59766 20.7227 -7.93945 20.1074 -7.93945 L 15.8691 -7.93945 L 15.8691 -12.1875 C 15.8691 -12.8027 15.5176 -13.1934 14.9512 -13.1934 C 14.3848 -13.1934 14.0625 -12.7832 14.0625 -12.1875 L 14.0625 -7.93945 L 9.83398 -7.93945 C 9.21875 -7.93945 8.80859 -7.59766 8.80859 -7.02148 C 8.80859 -6.46484 9.23828 -6.13281 9.83398 -6.13281 L 14.0625 -6.13281 L 14.0625 -2.06055 C 14.0625 -1.47461 14.3848 -1.06445 14.9512 -1.06445 Z"/>
  </g>
  <text style="stroke:none;fill:black;font-family:-apple-system,&quot;SF Pro Display&quot;,&quot;SF Pro Text&quot;,Helvetica,sans-serif;font-weight:bold;" transform="matrix(1 0 0 1 263 1953)">Design Variations</text>
  <text style="stroke:none;fill:black;font-family:-apple-system,&quot;SF Pro Display&quot;,&quot;SF Pro Text&quot;,Helvetica,sans-serif;" transform="matrix(1 0 0 1 263 1971)">Symbols are supported in up to nine weights and three scales.</text>
  <text style="stroke:none;fill:black;font-family:-apple-system,&quot;SF Pro Display&quot;,&quot;SF Pro Text&quot;,Helvetica,sans-serif;" transform="matrix(1 0 0 1 263 1989)">For optimal layout with text and other symbols, vertically align</text>
  <text style="stroke:none;fill:black;font-family:-apple-system,&quot;SF Pro Display&quot;,&quot;SF Pro Text&quot;,Helvetica,sans-serif;" transform="matrix(1 0 0 1 263 2007)">symbols with the adjacent text.</text>
  <rect height="14" id="" style="fill:#00AEEF;stroke:none;opacity:0.4;" width="3" x="776" y="1919"/>
  <g id="" transform="matrix(1 0 0 1 779 1933)">
   <path d="M 10.5273 0 L 12.373 0 L 7.17773 -14.0918 L 5.43945 -14.0918 L 0.244141 0 L 2.08984 0 L 3.50586 -4.0332 L 9.11133 -4.0332 Z M 6.2793 -11.9531 L 6.33789 -11.9531 L 8.59375 -5.52734 L 4.02344 -5.52734 Z"/>
  </g>
  <rect height="14" id="" style="fill:#00AEEF;stroke:none;opacity:0.4;" width="3" x="791.617" y="1919"/>
  <text style="stroke:none;fill:black;font-family:-apple-system,&quot;SF Pro Display&quot;,&quot;SF Pro Text&quot;,Helvetica,sans-serif;font-weight:bold;" transform="matrix(1 0 0 1 776 1953)">Margins</text>
  <text style="stroke:none;fill:black;font-family:-apple-system,&quot;SF Pro Display&quot;,&quot;SF Pro Text&quot;,Helvetica,sans-serif;" transform="matrix(1 0 0 1 776 1971)">Leading and trailing margins on the left and right side of each symbol</text>
  <text style="stroke:none;fill:black;font-family:-apple-system,&quot;SF Pro Display&quot;,&quot;SF Pro Text&quot;,Helvetica,sans-serif;" transform="matrix(1 0 0 1 776 1989)">can be adjusted by modifying the width of the blue rectangles.</text>
  <text style="stroke:none;fill:black;font-family:-apple-system,&quot;SF Pro Display&quot;,&quot;SF Pro Text&quot;,Helvetica,sans-serif;" transform="matrix(1 0 0 1 776 2007)">Modifications are automatically applied proportionally to all</text>
  <text style="stroke:none;fill:black;font-family:-apple-system,&quot;SF Pro Display&quot;,&quot;SF Pro Text&quot;,Helvetica,sans-serif;" transform="matrix(1 0 0 1 776 2025)">scales and weights.</text>
  <g id="" transform="matrix(1 0 0 1 1289 1933)">
   <path d="M 2.83203 3.11523 L 4.375 4.6582 C 5.22461 5.48828 6.19141 5.41992 7.06055 4.46289 L 17.2754 -6.66016 C 17.7051 -6.36719 18.0957 -6.37695 18.5645 -6.47461 L 19.6094 -6.68945 L 20.3027 -5.99609 L 20.2539 -5.47852 C 20.1855 -4.95117 20.3516 -4.53125 20.8496 -4.0332 L 21.6602 -3.22266 C 22.168 -2.71484 22.8223 -2.68555 23.3008 -3.16406 L 26.5527 -6.41602 C 27.0312 -6.89453 27.0117 -7.54883 26.5039 -8.05664 L 25.6836 -8.87695 C 25.1855 -9.375 24.7754 -9.55078 24.2383 -9.47266 L 23.7109 -9.41406 L 23.0566 -10.0781 L 23.3398 -11.2207 C 23.4863 -11.7871 23.3398 -12.2559 22.7148 -12.8613 L 20.3027 -15.2539 C 16.7578 -18.7793 12.2266 -18.6719 9.11133 -15.5371 C 8.69141 -15.1074 8.64258 -14.5215 8.91602 -14.0918 C 9.15039 -13.7207 9.62891 -13.4961 10.2734 -13.6621 C 11.7871 -14.043 13.3008 -13.9258 14.7852 -12.9199 L 14.1602 -11.3379 C 13.9258 -10.752 13.9453 -10.2734 14.1797 -9.83398 L 3.01758 0.439453 C 2.08008 1.30859 1.97266 2.25586 2.83203 3.11523 Z M 10.6738 -15.1465 C 13.3398 -17.1387 16.6504 -16.8262 19.0527 -14.4141 L 21.6797 -11.8066 C 21.9141 -11.5723 21.9434 -11.3867 21.8848 -11.0938 L 21.5039 -9.53125 L 23.0762 -7.95898 L 24.043 -8.04688 C 24.3262 -8.07617 24.4141 -8.05664 24.6387 -7.83203 L 25.2637 -7.20703 L 22.5098 -4.46289 L 21.8848 -5.07812 C 21.6602 -5.30273 21.6406 -5.40039 21.6699 -5.68359 L 21.7578 -6.64062 L 20.1953 -8.20312 L 18.5742 -7.89062 C 18.291 -7.83203 18.1445 -7.83203 17.9102 -8.07617 L 15.7324 -10.2539 C 15.5078 -10.4883 15.4785 -10.625 15.6055 -10.9473 L 16.5527 -13.2227 C 14.9512 -14.7559 12.8418 -15.6055 10.8008 -14.9512 C 10.7129 -14.9219 10.6445 -14.9414 10.6152 -14.9805 C 10.5859 -15.0293 10.5859 -15.0781 10.6738 -15.1465 Z M 4.10156 2.41211 C 3.61328 1.91406 3.78906 1.61133 4.12109 1.30859 L 15.0781 -8.80859 L 16.3086 -7.57812 L 6.15234 3.34961 C 5.84961 3.68164 5.46875 3.7793 5.06836 3.37891 Z"/>
  </g>
  <text style="stroke:none;fill:black;font-family:-apple-system,&quot;SF Pro Display&quot;,&quot;SF Pro Text&quot;,Helvetica,sans-serif;font-weight:bold;" transform="matrix(1 0 0 1 1289 1953)">Exporting</text>
  <text style="stroke:none;fill:black;font-family:-apple-system,&quot;SF Pro Display&quot;,&quot;SF Pro Text&quot;,Helvetica,sans-serif;" transform="matrix(1 0 0 1 1289 1971)">Symbols should be outlined when exporting to ensure the</text>
  <text style="stroke:none;fill:black;font-family:-apple-system,&quot;SF Pro Display&quot;,&quot;SF Pro Text&quot;,Helvetica,sans-serif;" transform="matrix(1 0 0 1 1289 1989)">design is preserved when submitting to Xcode.</text>
  <text id="template-version" style="stroke:none;fill:black;font-family:-apple-system,&quot;SF Pro Display&quot;,&quot;SF Pro Text&quot;,Helvetica,sans-serif;text-anchor:end;" transform="matrix(1 0 0 1 3036 1933)">Template v.1.0</text>
  <text style="stroke:none;fill:black;font-family:-apple-system,&quot;SF Pro Display&quot;,&quot;SF Pro Text&quot;,Helvetica,sans-serif;text-anchor:end;" transform="matrix(1 0 0 1 3036 1951)">Generated from waveform.path</text>
  <text style="stroke:none;fill:black;font-family:-apple-system,&quot;SF Pro Display&quot;,&quot;SF Pro Text&quot;,Helvetica,sans-serif;text-anchor:end;" transform="matrix(1 0 0 1 3036 1969)">Typeset at 100 points</text>
  <text style="stroke:none;fill:black;font-family:-apple-system,&quot;SF Pro Display&quot;,&quot;SF Pro Text&quot;,Helvetica,sans-serif;" transform="matrix(1 0 0 1 263 726)">Small</text>
  <text style="stroke:none;fill:black;font-family:-apple-system,&quot;SF Pro Display&quot;,&quot;SF Pro Text&quot;,Helvetica,sans-serif;" transform="matrix(1 0 0 1 263 1156)">Medium</text>
  <text style="stroke:none;fill:black;font-family:-apple-system,&quot;SF Pro Display&quot;,&quot;SF Pro Text&quot;,Helvetica,sans-serif;" transform="matrix(1 0 0 1 263 1586)">Large</text>
 </g>
 <g id="Guides">
  <g id="H-reference" style="fill:#27AAE1;stroke:none;" transform="matrix(1 0 0 1 339 696)">
   <path d="M 54.9316 0 L 57.666 0 L 30.5664 -70.459 L 28.0762 -70.459 L 0.976562 0 L 3.66211 0 L 12.9395 -24.4629 L 45.7031 -24.4629 Z M 29.1992 -67.0898 L 29.4434 -67.0898 L 44.8242 -26.709 L 13.8184 -26.709 Z"/>
  </g>
  <line id="Baseline-S" style="fill:none;stroke:#27AAE1;opacity:1;stroke-width:0.577;" x1="263" x2="3036" y1="696" y2="696"/>
  <line id="Capline-S" style="fill:none;stroke:#27AAE1;opacity:1;stroke-width:0.577;" x1="263" x2="3036" y1="625.541" y2="625.541"/>
  <g id="H-reference" style="fill:#27AAE1;stroke:none;" transform="matrix(1 0 0 1 339 1126)">
   <path d="M 54.9316 0 L 57.666 0 L 30.5664 -70.459 L 28.0762 -70.459 L 0.976562 0 L 3.66211 0 L 12.9395 -24.4629 L 45.7031 -24.4629 Z M 29.1992 -67.0898 L 29.4434 -67.0898 L 44.8242 -26.709 L 13.8184 -26.709 Z"/>
  </g>
  <line id="Baseline-M" style="fill:none;stroke:#27AAE1;opacity:1;stroke-width:0.577;" x1="263" x2="3036" y1="1126" y2="1126"/>
  <line id="Capline-M" style="fill:none;stroke:#27AAE1;opacity:1;stroke-width:0.577;" x1="263" x2="3036" y1="1055.54" y2="1055.54"/>
  <g id="H-reference" style="fill:#27AAE1;stroke:none;" transform="matrix(1 0 0 1 339 1556)">
   <path d="M 54.9316 0 L 57.666 0 L 30.5664 -70.459 L 28.0762 -70.459 L 0.976562 0 L 3.66211 0 L 12.9395 -24.4629 L 45.7031 -24.4629 Z M 29.1992 -67.0898 L 29.4434 -67.0898 L 44.8242 -26.709 L 13.8184 -26.709 Z"/>
  </g>
  <line id="Baseline-L" style="fill:none;stroke:#27AAE1;opacity:1;stroke-width:0.577;" x1="263" x2="3036" y1="1556" y2="1556"/>
  <line id="Capline-L" style="fill:none;stroke:#27AAE1;opacity:1;stroke-width:0.577;" x1="263" x2="3036" y1="1485.54" y2="1485.54"/>
  <rect height="119.336" id="left-margin" style="fill:#00AEEF;stroke:none;opacity:0.4;" width="9.96094" x="1380" y="1030.79"/>
  <rect height="119.336" id="right-margin" style="fill:#00AEEF;stroke:none;opacity:0.4;" width="9.96094" x="1509.73" y="1030.79"/>
 </g>
 <g id="Symbols">
  <g id="Black-L" transform="matrix(1 0 0 1 2837.82 1556)">
   <path d="M 20.166 -19.7754 L 39.0137 -19.7754 C 41.8457 -19.7754 44.2383 -20.5078 45.8496 -22.0703 L 52.2949 9.91211 C 53.8574 17.627 65.0879 17.627 66.2109 9.91211 L 70.3125 -18.0664 L 76.5625 38.916 C 77.4902 47.4121 89.8926 47.3633 90.625 38.916 L 95.7031 -20.8008 L 100.732 38.916 C 101.465 47.4121 113.867 47.4121 114.795 38.916 L 121.045 -18.0664 L 125.195 9.91211 C 126.27 17.627 137.549 17.627 139.111 9.91211 L 145.801 -23.2422 C 147.9 -20.9961 150.684 -19.7754 153.906 -19.7754 L 170.947 -19.7754 C 174.951 -19.7754 178.271 -23.0957 178.271 -27.0508 C 178.271 -31.0059 174.951 -34.3262 170.947 -34.3262 L 155.811 -34.3262 L 151.221 -52.8809 C 149.414 -60.2539 138.916 -60.2539 137.451 -52.8809 L 133.301 -32.5684 L 127.002 -75.0977 C 125.83 -83.3984 113.916 -83.3984 113.037 -75.0977 L 108.74 -35.8887 L 102.783 -106.299 C 102.051 -114.941 89.3066 -114.941 88.623 -106.299 L 82.666 -35.8887 L 78.3203 -75.0977 C 77.4414 -83.3984 65.5762 -83.3984 64.3555 -75.0977 L 58.1055 -32.5684 L 53.9062 -52.8809 C 52.4902 -60.0586 41.9434 -60.0586 40.1855 -52.8809 L 35.5469 -34.3262 L 20.166 -34.3262 C 16.2109 -34.3262 12.8906 -31.0059 12.8906 -27.0508 C 12.8906 -23.0957 16.2109 -19.7754 20.166 -19.7754 Z"/>
  </g>
  <g id="Heavy-L" transform="matrix(1 0 0 1 2542.33 1556)">
   <path d="M 19.3848 -20.7031 L 38.2812 -20.7031 C 41.3574 -20.7031 43.8965 -21.7773 45.166 -24.0234 L 51.9531 9.27734 C 53.3203 15.9668 63.1836 15.9668 64.1602 9.22852 L 69.2383 -24.9512 L 76.2695 37.8418 C 77.0996 45.3125 87.9395 45.2637 88.5742 37.8418 L 94.4824 -31.0059 L 100.439 37.8418 C 101.074 45.3125 111.914 45.3125 112.744 37.8418 L 119.727 -24.9512 L 124.854 9.27734 C 125.83 15.9668 135.693 15.9668 137.061 9.27734 L 144.043 -24.9512 C 145.85 -22.1191 148.584 -20.7031 151.855 -20.7031 L 169.336 -20.7031 C 172.9 -20.7031 175.83 -23.6328 175.83 -27.1484 C 175.83 -30.6641 172.9 -33.6426 169.336 -33.6426 L 153.906 -33.6426 L 149.17 -52.5879 C 147.559 -59.0332 138.379 -59.0332 137.109 -52.5391 L 131.934 -27.7344 L 124.951 -74.5605 C 123.926 -81.8848 113.477 -81.8359 112.695 -74.5605 L 107.422 -27.1973 L 100.684 -105.322 C 100.049 -112.891 88.916 -112.891 88.2812 -105.322 L 81.5918 -27.1973 L 76.2695 -74.5605 C 75.4883 -81.8848 65.0879 -81.8848 64.0137 -74.5605 L 57.0312 -27.7344 L 51.9043 -52.5391 C 50.6348 -58.8867 41.4062 -58.8867 39.8438 -52.5391 L 35.0586 -33.6426 L 19.3848 -33.6426 C 15.8203 -33.6426 12.8906 -30.6641 12.8906 -27.1484 C 12.8906 -23.6328 15.8203 -20.7031 19.3848 -20.7031 Z"/>
  </g>
  <g id="Bold-L" transform="matrix(1 0 0 1 2246.98 1556)">
   <path d="M 18.457 -21.7285 L 37.5 -21.7285 C 40.0879 -21.7285 42.2363 -22.8027 43.2129 -24.9023 L 44.1406 -27.4414 L 51.6113 8.54492 C 52.7344 14.1113 61.084 14.1113 61.8652 8.54492 L 68.0664 -32.666 L 75.8789 36.6699 C 76.6113 42.9688 85.7422 42.9199 86.2793 36.6699 L 93.1641 -42.3828 L 100.098 36.6211 C 100.635 42.9688 109.717 42.9688 110.449 36.6211 L 118.262 -32.666 L 124.463 8.59375 C 125.293 14.1113 133.594 14.1113 134.766 8.59375 L 142.383 -27.9785 L 143.018 -25.9766 C 144.287 -23.0957 146.729 -21.7285 149.561 -21.7285 L 167.529 -21.7285 C 170.557 -21.7285 173.096 -24.2188 173.096 -27.2461 C 173.096 -30.2734 170.557 -32.8125 167.529 -32.8125 L 151.807 -32.8125 L 146.875 -52.1973 C 145.508 -57.7148 137.793 -57.7148 136.719 -52.1973 L 130.469 -22.2656 L 122.656 -73.9746 C 121.777 -80.127 113.037 -80.0781 112.354 -73.9746 L 105.957 -17.4805 L 98.3887 -104.248 C 97.8516 -110.596 88.4766 -110.596 87.9395 -104.248 L 80.4199 -17.4805 L 74.0234 -73.9746 C 73.3398 -80.1758 64.5996 -80.1758 63.6719 -73.9746 L 55.9082 -22.2656 L 49.6582 -52.1973 C 48.5352 -57.5195 40.8203 -57.5195 39.4531 -52.1973 L 34.5703 -32.8125 L 18.457 -32.8125 C 15.4297 -32.8125 12.8906 -30.2734 12.8906 -27.2461 C 12.8906 -24.2188 15.4297 -21.7285 18.457 -21.7285 Z"/>
  </g>
  <g id="Semibold-L" transform="matrix(1 0 0 1 1951.2 1556)">
   <path d="M 17.8711 -22.4121 L 36.9629 -22.4121 C 39.1602 -22.4121 41.0156 -23.4375 41.748 -25.3418 L 43.3105 -30.3223 L 51.3672 8.05664 C 52.3438 12.793 59.6191 12.8418 60.3027 8.00781 L 67.2363 -37.9883 L 75.6348 35.8887 C 76.2695 41.3574 84.1797 41.3086 84.668 35.8887 L 92.2363 -50.2441 L 99.8535 35.791 C 100.293 41.3086 108.252 41.3574 108.838 35.791 L 117.285 -37.9883 L 124.219 8.10547 C 124.951 12.8418 132.178 12.8418 133.154 8.10547 L 141.309 -30.6152 L 142.627 -26.0742 C 143.652 -23.584 145.654 -22.4121 147.998 -22.4121 L 166.26 -22.4121 C 168.994 -22.4121 171.24 -24.6582 171.24 -27.3438 C 171.24 -30.0293 168.994 -32.2754 166.26 -32.2754 L 150.293 -32.2754 L 145.312 -52.002 C 144.092 -56.8359 137.402 -56.7871 136.426 -51.9531 L 129.395 -18.5059 L 121.094 -73.584 C 120.312 -78.9551 112.695 -78.8574 112.061 -73.5352 L 104.932 -10.7422 L 96.8262 -103.467 C 96.3379 -109.033 88.1836 -109.033 87.6953 -103.467 L 79.5898 -10.7422 L 72.4121 -73.5352 C 71.8262 -79.0039 64.2578 -79.0039 63.4277 -73.584 L 55.0781 -18.5059 L 48.0957 -51.9043 C 47.1191 -56.5918 40.3809 -56.5918 39.209 -51.9043 L 34.1797 -32.2754 L 17.8711 -32.2754 C 15.1367 -32.2754 12.8906 -30.0293 12.8906 -27.3438 C 12.8906 -24.6582 15.1367 -22.4121 17.8711 -22.4121 Z"/>
  </g>
  <g id="Medium-L" transform="matrix(1 0 0 1 1655.22 1556)">
   <path d="M 17.3828 -22.9492 L 36.5723 -22.9492 C 38.4277 -22.9492 40.1367 -23.9258 40.6738 -25.6836 L 42.627 -32.7148 L 51.1719 7.66602 C 52.0508 11.8164 58.4961 11.8652 59.1309 7.66602 L 66.6016 -41.9922 L 75.4883 35.2539 C 76.0254 40.1367 83.0566 40.0879 83.4473 35.2539 L 91.5527 -56.2012 L 99.6582 35.1562 C 100.098 40.0879 107.08 40.1367 107.666 35.1562 L 116.504 -41.9922 L 124.023 7.71484 C 124.658 11.8652 131.055 11.8652 131.982 7.71484 L 140.527 -32.8125 L 142.383 -26.123 C 143.164 -23.9258 144.873 -22.9492 146.826 -22.9492 L 165.283 -22.9492 C 167.773 -22.9492 169.775 -24.9512 169.775 -27.3926 C 169.775 -29.834 167.773 -31.8848 165.283 -31.8848 L 149.219 -31.8848 L 144.092 -51.8066 C 142.969 -56.1523 137.109 -56.1035 136.23 -51.7578 L 128.613 -15.625 L 119.873 -73.2422 C 119.189 -78.0762 112.451 -77.9785 111.914 -73.2422 L 104.15 -5.66406 L 95.6055 -102.881 C 95.2148 -107.861 87.9395 -107.861 87.5 -102.881 L 78.9551 -5.66406 L 71.2402 -73.2422 C 70.6543 -78.0762 63.9648 -78.0762 63.2324 -73.2422 L 54.4922 -15.625 L 46.9238 -51.709 C 46.0449 -55.9082 40.0879 -55.9082 39.0137 -51.709 L 33.9355 -31.8848 L 17.3828 -31.8848 C 14.8926 -31.8848 12.8906 -29.834 12.8906 -27.3926 C 12.8906 -24.9512 14.8926 -22.9492 17.3828 -22.9492 Z"/>
  </g>
  <g id="Regular-L" transform="matrix(1 0 0 1 1359.44 1556)">
   <path d="M 16.748 -23.6816 L 36.0352 -23.6816 C 37.5 -23.6816 38.916 -24.5605 39.2578 -26.1719 L 41.6504 -36.1816 L 50.9277 7.17773 C 51.6602 10.5469 57.0312 10.5957 57.5684 7.17773 L 65.8203 -47.2168 L 75.2441 34.4727 C 75.7324 38.5742 81.543 38.5254 81.8848 34.4727 L 90.6738 -63.9648 L 99.4141 34.375 C 99.7559 38.4766 105.615 38.5254 106.104 34.375 L 115.527 -47.2168 L 123.779 7.22656 C 124.316 10.6445 129.639 10.6445 130.42 7.22656 L 139.6 -35.791 L 142.041 -26.1719 C 142.48 -24.3652 143.799 -23.6816 145.264 -23.6816 L 164.062 -23.6816 C 166.211 -23.6816 167.92 -25.3418 167.92 -27.4414 C 167.92 -29.5898 166.211 -31.3477 164.062 -31.3477 L 147.754 -31.3477 L 142.529 -51.5625 C 141.602 -55.2246 136.719 -55.2246 135.938 -51.5625 L 127.588 -11.9141 L 118.311 -72.8516 C 117.725 -76.9043 112.109 -76.8066 111.621 -72.8027 L 103.174 0.976562 L 94.043 -102.148 C 93.7012 -106.299 87.6465 -106.299 87.2559 -102.148 L 78.1738 0.976562 L 69.6777 -72.8027 C 69.1895 -76.9043 63.623 -76.9043 62.9883 -72.8516 L 53.7109 -11.9141 L 45.3613 -51.4648 C 44.6289 -54.9805 39.6973 -54.9805 38.7695 -51.4648 L 33.5449 -31.3477 L 16.748 -31.3477 C 14.5996 -31.3477 12.8906 -29.5898 12.8906 -27.4414 C 12.8906 -25.3418 14.5996 -23.6816 16.748 -23.6816 Z"/>
  </g>
  <g id="Light-L" transform="matrix(1 0 0 1 1062.39 1556)">
   <path d="M 15.918 -24.5117 L 36.2305 -24.5117 C 37.4023 -24.5117 38.5742 -25.2441 38.8672 -26.5137 L 41.8945 -39.1602 L 51.7578 7.27539 C 52.3926 10.1074 56.6895 10.1562 57.1777 7.22656 L 66.1133 -52.3438 L 76.0742 34.4727 C 76.5137 37.7441 81.2012 37.6953 81.4941 34.4727 L 90.918 -71.4844 L 100.342 34.3262 C 100.586 37.6465 105.322 37.6953 105.713 34.3262 L 115.674 -52.3438 L 124.707 7.37305 C 125.146 10.2051 129.443 10.2051 130.029 7.37305 L 139.844 -38.8672 L 142.92 -26.5137 C 143.311 -25.1465 144.385 -24.5117 145.557 -24.5117 L 165.576 -24.5117 C 167.236 -24.5117 168.604 -25.8789 168.604 -27.4902 C 168.604 -29.1504 167.236 -30.5176 165.576 -30.5176 L 147.607 -30.5176 L 142.188 -51.709 C 141.455 -54.6387 137.5 -54.5898 136.865 -51.6602 L 127.783 -8.1543 L 117.92 -73.0957 C 117.48 -76.3184 112.939 -76.2695 112.549 -73.0469 L 103.32 7.42188 L 93.6035 -102.295 C 93.3594 -105.615 88.4766 -105.615 88.1836 -102.295 L 78.4668 7.42188 L 69.2383 -73.0469 C 68.8477 -76.3672 64.3555 -76.3672 63.8672 -73.0957 L 54.0039 -8.1543 L 44.9219 -51.5625 C 44.2871 -54.4922 40.332 -54.4922 39.5508 -51.5625 L 34.1797 -30.5176 L 15.918 -30.5176 C 14.209 -30.5176 12.8906 -29.1504 12.8906 -27.4902 C 12.8906 -25.8789 14.209 -24.5117 15.918 -24.5117 Z"/>
  </g>
  <g id="Thin-L" transform="matrix(1 0 0 1 765.236 1556)">
   <path d="M 14.7949 -25.6348 L 36.4746 -25.6348 C 37.3047 -25.6348 38.0859 -26.1719 38.2812 -27.002 L 42.2852 -43.0176 L 52.8809 7.42188 C 53.3203 9.47266 56.25 9.52148 56.6406 7.32422 L 66.5527 -59.1309 L 77.2461 34.4727 C 77.5391 36.6699 80.7129 36.6699 80.9082 34.4727 L 91.2109 -81.4453 L 101.514 34.2285 C 101.709 36.5234 104.932 36.5723 105.176 34.2285 L 115.869 -59.1309 L 125.879 7.56836 C 126.221 9.61914 129.102 9.61914 129.541 7.56836 L 140.137 -42.9688 L 144.141 -27.002 C 144.336 -26.1719 145.117 -25.6348 145.947 -25.6348 L 167.578 -25.6348 C 168.604 -25.6348 169.482 -26.5625 169.482 -27.5391 C 169.482 -28.5156 168.604 -29.4434 167.578 -29.4434 L 147.412 -29.4434 L 141.748 -51.8555 C 141.309 -53.8086 138.477 -53.7598 138.086 -51.8066 L 127.979 -3.22266 L 117.432 -73.4375 C 117.139 -75.5859 114.014 -75.5859 113.721 -73.3887 L 103.564 15.9668 L 93.0664 -102.441 C 92.8711 -104.736 89.5508 -104.736 89.3555 -102.441 L 78.9062 15.9668 L 68.7012 -73.3887 C 68.4082 -75.6836 65.3809 -75.6836 65.0391 -73.4375 L 54.4434 -3.22266 L 44.3359 -51.6602 C 43.8965 -53.8086 41.1621 -53.8086 40.5762 -51.6602 L 35.0098 -29.4434 L 14.7949 -29.4434 C 13.7207 -29.4434 12.8906 -28.5156 12.8906 -27.5391 C 12.8906 -26.5625 13.7207 -25.6348 14.7949 -25.6348 Z"/>
  </g>
  <g id="Ultralight-L" transform="matrix(1 0 0 1 468.305 1556)">
   <path d="M 14.209 -26.2207 L 36.5723 -26.2207 C 37.207 -26.2207 37.8906 -26.6602 37.9883 -27.2461 L 42.4805 -45.0195 L 53.4668 7.4707 C 53.8086 9.13086 56.0547 9.22852 56.3477 7.37305 L 66.7969 -62.5977 L 77.832 34.4727 C 78.0273 36.1328 80.4688 36.1328 80.6152 34.4727 L 91.3574 -86.5234 L 102.148 34.1797 C 102.246 35.9375 104.736 36.0352 104.932 34.1797 L 115.967 -62.5977 L 126.514 7.61719 C 126.807 9.27734 128.955 9.27734 129.297 7.61719 L 140.283 -45.0684 L 144.775 -27.2461 C 144.873 -26.6602 145.508 -26.2207 146.143 -26.2207 L 168.604 -26.2207 C 169.336 -26.2207 169.922 -26.9043 169.922 -27.5391 C 169.922 -28.2227 169.336 -28.9062 168.604 -28.9062 L 147.314 -28.9062 L 141.553 -51.9531 C 141.211 -53.418 139.014 -53.3203 138.721 -51.8555 L 128.125 -0.683594 L 117.139 -73.6328 C 116.943 -75.1953 114.551 -75.2441 114.355 -73.5352 L 103.662 20.3125 L 92.7734 -102.539 C 92.627 -104.297 90.1367 -104.297 89.9902 -102.539 L 79.1016 20.3125 L 68.4082 -73.5352 C 68.2129 -75.293 65.918 -75.293 65.625 -73.6328 L 54.6387 -0.683594 L 44.043 -51.709 C 43.6523 -53.418 41.5527 -53.418 41.1133 -51.709 L 35.4492 -28.9062 L 14.209 -28.9062 C 13.4766 -28.9062 12.8906 -28.2227 12.8906 -27.5391 C 12.8906 -26.9043 13.4766 -26.2207 14.209 -26.2207 Z"/>
  </g>
  <g id="Black-M" transform="matrix(1 0 0 1 2857.55 1126)">
   <path d="M 16.2598 -22.4609 L 31.25 -22.4609 C 33.3984 -22.4609 35.2051 -22.9004 36.6699 -23.7305 L 41.4062 0.634766 C 42.7734 7.71484 52.7832 7.71484 53.8086 0.634766 L 56.1035 -15.3809 L 60.2051 23.6328 C 61.0352 31.2012 72.1191 31.2012 72.7539 23.6328 L 75.8789 -14.3555 L 78.9551 23.6328 C 79.5898 31.2012 90.6738 31.2012 91.5039 23.6328 L 95.6055 -15.3809 L 97.9004 0.634766 C 98.9258 7.71484 108.936 7.71484 110.303 0.634766 L 115.332 -24.9023 C 117.236 -23.3398 119.531 -22.4609 122.119 -22.4609 L 135.498 -22.4609 C 138.867 -22.4609 141.748 -25.3906 141.748 -28.7598 C 141.748 -32.1777 138.867 -35.0586 135.498 -35.0586 L 123.242 -35.0586 L 119.727 -49.3652 C 118.164 -55.8594 108.691 -55.8594 107.471 -49.3652 L 105.176 -37.7441 L 100.977 -66.9922 C 99.9023 -74.3652 89.2578 -74.3652 88.5254 -66.9922 L 86.084 -44.043 L 82.1777 -91.6992 C 81.543 -99.4141 70.166 -99.4141 69.5312 -91.6992 L 65.625 -44.043 L 63.1836 -66.9922 C 62.4512 -74.3652 51.8066 -74.3652 50.7324 -66.9922 L 46.5332 -37.7441 L 44.2383 -49.3652 C 43.0176 -55.8105 33.5449 -55.8105 31.9824 -49.3652 L 28.4668 -35.0586 L 16.2598 -35.0586 C 12.8418 -35.0586 9.96094 -32.1777 9.96094 -28.7598 C 9.96094 -25.3906 12.8418 -22.4609 16.2598 -22.4609 Z"/>
  </g>
  <g id="Heavy-M" transform="matrix(1 0 0 1 2562.25 1126)">
   <path d="M 15.5762 -23.2422 L 30.4199 -23.2422 C 32.666 -23.2422 34.5215 -23.8281 35.8398 -25 L 40.8203 -0.0488281 C 42.041 6.00586 50.7812 6.00586 51.6602 -0.0976562 L 54.834 -21.582 L 59.6191 22.4609 C 60.3516 29.1016 70.0684 29.1016 70.6055 22.4609 L 74.5117 -23.5352 L 78.3691 22.4609 C 78.9551 29.1016 88.623 29.1016 89.3555 22.4609 L 94.1406 -21.582 L 97.3145 -0.0488281 C 98.1934 6.05469 106.982 6.05469 108.203 -0.0488281 L 113.379 -25.9766 C 115.088 -24.2188 117.285 -23.2422 119.824 -23.2422 L 133.301 -23.2422 C 136.328 -23.2422 138.916 -25.8301 138.916 -28.8574 C 138.916 -31.9336 136.328 -34.4727 133.301 -34.4727 L 121.191 -34.4727 L 117.578 -49.0234 C 116.162 -54.7363 107.959 -54.7363 106.836 -49.0234 L 103.662 -33.3984 L 98.8281 -66.3574 C 97.9004 -72.8027 88.5742 -72.8027 87.8906 -66.3574 L 84.6191 -36.2305 L 80.0293 -90.625 C 79.4434 -97.3633 69.5312 -97.3633 68.9941 -90.625 L 64.4043 -36.2305 L 61.084 -66.3574 C 60.4004 -72.8027 51.123 -72.8027 50.1465 -66.3574 L 45.3613 -33.3984 L 42.1387 -49.0234 C 41.0645 -54.6387 32.8125 -54.6387 31.3965 -49.0234 L 27.832 -34.4727 L 15.5762 -34.4727 C 12.5488 -34.4727 9.96094 -31.9336 9.96094 -28.8574 C 9.96094 -25.8301 12.5488 -23.2422 15.5762 -23.2422 Z"/>
  </g>
  <g id="Bold-M" transform="matrix(1 0 0 1 2267.13 1126)">
   <path d="M 14.8438 -24.1211 L 29.4922 -24.1211 C 31.8848 -24.1211 33.7891 -25 34.7168 -26.8066 L 34.8145 -27.0508 L 40.1855 -0.878906 C 41.1621 4.15039 48.584 4.15039 49.3164 -0.878906 L 53.418 -28.5156 L 58.9844 21.1914 C 59.6191 26.8066 67.7246 26.7578 68.2129 21.1914 L 72.998 -33.7891 L 77.7344 21.1914 C 78.2227 26.8066 86.3281 26.8066 86.9629 21.1914 L 92.5293 -28.5156 L 96.6309 -0.878906 C 97.3633 4.15039 104.785 4.15039 105.762 -0.878906 L 111.279 -27.6367 C 112.598 -25.293 114.746 -24.1211 117.285 -24.1211 L 130.859 -24.1211 C 133.545 -24.1211 135.742 -26.3184 135.742 -28.9551 C 135.742 -31.6406 133.545 -33.8867 130.859 -33.8867 L 118.896 -33.8867 L 115.186 -48.584 C 113.965 -53.4668 107.08 -53.4668 106.152 -48.584 L 101.953 -28.5156 L 96.4355 -65.625 C 95.6543 -71.0938 87.8418 -71.0449 87.2559 -65.625 L 82.959 -27.4414 L 77.6367 -89.3555 C 77.1484 -95.0195 68.7988 -95.0195 68.3105 -89.3555 L 62.9883 -27.4414 L 58.6914 -65.625 C 58.1055 -71.0938 50.3418 -71.0938 49.5117 -65.625 L 43.9941 -28.5156 L 39.7949 -48.584 C 38.8672 -53.3203 31.9336 -53.3203 30.7617 -48.584 L 27.0508 -33.8867 L 14.8438 -33.8867 C 12.1582 -33.8867 9.96094 -31.6406 9.96094 -28.9551 C 9.96094 -26.3184 12.1582 -24.1211 14.8438 -24.1211 Z"/>
  </g>
  <g id="Semibold-M" transform="matrix(1 0 0 1 1971.51 1126)">
   <path d="M 14.3555 -24.7559 L 28.9062 -24.7559 C 30.8594 -24.7559 32.5195 -25.5859 33.252 -27.2461 L 33.9355 -29.248 L 39.6973 -1.41602 C 40.625 2.83203 47.0703 2.83203 47.6562 -1.46484 L 52.4902 -33.3008 L 58.5449 20.3125 C 59.082 25.1953 66.1621 25.1953 66.5527 20.3125 L 71.9238 -40.8691 L 77.2949 20.3125 C 77.6855 25.1953 84.7656 25.1953 85.3027 20.3125 L 91.4062 -33.3008 L 96.1914 -1.41602 C 96.8262 2.83203 103.223 2.83203 104.15 -1.41602 L 110.01 -29.541 L 110.498 -28.0273 C 111.475 -25.7812 113.33 -24.7559 115.479 -24.7559 L 129.199 -24.7559 C 131.592 -24.7559 133.545 -26.6602 133.545 -29.0527 C 133.545 -31.4453 131.592 -33.4473 129.199 -33.4473 L 117.334 -33.4473 L 113.525 -48.3398 C 112.451 -52.5879 106.543 -52.5879 105.664 -48.291 L 100.781 -25.1465 L 94.7754 -65.1367 C 94.0918 -69.9219 87.3047 -69.8242 86.7676 -65.0879 L 81.8359 -21.3867 L 75.9766 -88.5254 C 75.5371 -93.457 68.3105 -93.457 67.8711 -88.5254 L 62.0117 -21.3867 L 57.0801 -65.0879 C 56.543 -69.9219 49.8047 -69.9219 49.0723 -65.1367 L 43.0664 -25.1465 L 38.1836 -48.291 C 37.3535 -52.4414 31.3965 -52.4414 30.3223 -48.291 L 26.5137 -33.4473 L 14.3555 -33.4473 C 11.9141 -33.4473 9.96094 -31.4453 9.96094 -29.0527 C 9.96094 -26.6602 11.9141 -24.7559 14.3555 -24.7559 Z"/>
  </g>
  <g id="Medium-M" transform="matrix(1 0 0 1 1675.63 1126)">
   <path d="M 13.9648 -25.1953 L 28.418 -25.1953 C 30.0781 -25.1953 31.5918 -25.9766 32.1289 -27.5391 L 33.1543 -31.2012 L 39.4043 -1.85547 C 40.1855 1.80664 45.8984 1.85547 46.4355 -1.85547 L 51.7578 -36.9141 L 58.2031 19.6289 C 58.6914 23.9746 64.9414 23.9746 65.332 19.6289 L 71.1426 -46.2402 L 76.9531 19.6289 C 77.3438 23.9746 83.5449 23.9746 84.0332 19.6289 L 90.5273 -36.9141 L 95.8496 -1.85547 C 96.3867 1.85547 102.1 1.85547 102.881 -1.85547 L 109.131 -31.3477 L 110.107 -27.9785 C 110.84 -26.0254 112.354 -25.1953 114.16 -25.1953 L 127.93 -25.1953 C 130.127 -25.1953 131.885 -26.9531 131.885 -29.1016 C 131.885 -31.2988 130.127 -33.1055 127.93 -33.1055 L 116.113 -33.1055 L 112.256 -48.0957 C 111.279 -51.9531 106.055 -51.9531 105.273 -48.0957 L 99.9023 -22.6074 L 93.5059 -64.7461 C 92.8711 -68.9941 86.9141 -68.9453 86.4258 -64.7461 L 80.957 -16.8457 L 74.707 -87.8906 C 74.3652 -92.2363 67.9199 -92.2363 67.5293 -87.8906 L 61.3281 -16.8457 L 55.8105 -64.7461 C 55.3223 -68.9941 49.3652 -68.9941 48.7305 -64.7461 L 42.334 -22.6074 L 36.9629 -48.0469 C 36.2305 -51.709 30.957 -51.709 29.9805 -48.0469 L 26.123 -33.1055 L 13.9648 -33.1055 C 11.7188 -33.1055 9.96094 -31.2988 9.96094 -29.1016 C 9.96094 -26.9531 11.7188 -25.1953 13.9648 -25.1953 Z"/>
  </g>
  <g id="Regular-M" transform="matrix(1 0 0 1 1380 1126)">
   <path d="M 13.4766 -25.7812 L 27.7832 -25.7812 C 29.1016 -25.7812 30.3223 -26.5625 30.6641 -27.9785 L 32.0801 -34.2773 L 38.9648 -2.39258 C 39.5996 0.537109 44.3848 0.537109 44.8242 -2.44141 L 50.7812 -41.6016 L 57.7637 18.7988 C 58.2031 22.4121 63.3789 22.3633 63.6719 18.7988 L 70.0684 -53.2227 L 76.5137 18.75 C 76.8066 22.4121 81.9824 22.4121 82.4219 18.75 L 89.4043 -41.6016 L 95.3613 -2.39258 C 95.8496 0.585938 100.586 0.585938 101.221 -2.39258 L 108.008 -33.8867 L 109.521 -27.9785 C 109.961 -26.3672 111.084 -25.7812 112.402 -25.7812 L 126.27 -25.7812 C 128.223 -25.7812 129.736 -27.2949 129.736 -29.1992 C 129.736 -31.1035 128.223 -32.666 126.27 -32.666 L 114.551 -32.666 L 110.645 -47.8027 C 109.766 -51.0742 105.518 -51.0742 104.785 -47.8027 L 98.7793 -19.2871 L 91.8945 -64.2578 C 91.3574 -67.8223 86.4258 -67.7246 85.9863 -64.209 L 79.834 -10.8398 L 73.0957 -87.0117 C 72.7539 -90.6738 67.4316 -90.6738 67.0898 -87.0117 L 60.3516 -10.8398 L 54.1992 -64.209 C 53.7598 -67.8223 48.8281 -67.8223 48.291 -64.2578 L 41.4062 -19.2871 L 35.4004 -47.8027 C 34.7168 -50.8301 30.3711 -50.8301 29.541 -47.8027 L 25.6348 -32.666 L 13.4766 -32.666 C 11.4746 -32.666 9.96094 -31.1035 9.96094 -29.1992 C 9.96094 -27.2949 11.4746 -25.7812 13.4766 -25.7812 Z"/>
  </g>
  <g id="Light-M" transform="matrix(1 0 0 1 1082.99 1126)">
   <path d="M 12.6953 -26.5625 L 27.9785 -26.5625 C 29.0039 -26.5625 30.0293 -27.1973 30.2734 -28.3203 L 32.3242 -36.9629 L 39.6973 -2.34375 C 40.2344 0.0976562 44.0918 0.146484 44.4336 -2.34375 L 51.0742 -46.1914 L 58.5449 18.7988 C 58.8867 21.6797 63.0371 21.6797 63.2812 18.7988 L 70.3125 -59.9609 L 77.2949 18.7012 C 77.5879 21.6309 81.6895 21.6797 82.0801 18.7012 L 89.5508 -46.1914 L 96.1914 -2.24609 C 96.582 0.146484 100.391 0.146484 100.928 -2.24609 L 108.252 -36.6699 L 110.352 -28.3203 C 110.645 -27.0508 111.621 -26.5625 112.646 -26.5625 L 127.588 -26.5625 C 129.15 -26.5625 130.322 -27.7344 130.322 -29.1992 C 130.322 -30.7129 129.15 -31.9336 127.588 -31.9336 L 114.404 -31.9336 L 110.303 -47.9492 C 109.668 -50.5371 106.201 -50.4883 105.615 -47.9004 L 98.9258 -15.918 L 91.5527 -64.4531 C 91.1133 -67.334 87.1094 -67.2852 86.7676 -64.4531 L 79.9805 -5.07812 L 72.7051 -87.1582 C 72.4609 -90.0879 68.1641 -90.0879 67.9199 -87.1582 L 60.6445 -5.07812 L 53.8086 -64.4531 C 53.4668 -67.334 49.5117 -67.334 49.0723 -64.4531 L 41.6992 -15.918 L 34.9609 -47.8516 C 34.4238 -50.3906 30.9082 -50.3906 30.2734 -47.8516 L 26.1719 -31.9336 L 12.6953 -31.9336 C 11.1816 -31.9336 9.96094 -30.7129 9.96094 -29.1992 C 9.96094 -27.7344 11.1816 -26.5625 12.6953 -26.5625 Z"/>
  </g>
  <g id="Thin-M" transform="matrix(1 0 0 1 785.89 1126)">
   <path d="M 11.6699 -27.5391 L 28.1738 -27.5391 C 28.9062 -27.5391 29.5898 -28.0273 29.7852 -28.7598 L 32.666 -40.4297 L 40.7227 -2.19727 C 41.1133 -0.488281 43.7012 -0.390625 43.9453 -2.24609 L 51.4648 -52.2949 L 59.5703 18.7988 C 59.8145 20.7031 62.6465 20.7031 62.793 18.7988 L 70.6055 -68.8965 L 78.3691 18.6035 C 78.5645 20.6055 81.3477 20.6543 81.5918 18.6035 L 89.6973 -52.2949 L 97.2656 -2.09961 C 97.5586 -0.341797 100.098 -0.341797 100.488 -2.09961 L 108.496 -40.332 L 111.426 -28.7598 C 111.621 -27.9785 112.305 -27.5391 112.988 -27.5391 L 129.395 -27.5391 C 130.371 -27.5391 131.104 -28.3691 131.104 -29.248 C 131.104 -30.1758 130.371 -30.957 129.395 -30.957 L 114.258 -30.957 L 109.912 -48.0957 C 109.521 -49.8047 107.08 -49.7559 106.738 -48.0469 L 99.1211 -11.4746 L 91.0645 -64.7949 C 90.8203 -66.6504 88.0859 -66.6504 87.8418 -64.7461 L 80.1758 2.58789 L 72.2168 -87.3047 C 72.0215 -89.3066 69.1406 -89.3066 68.9941 -87.3047 L 61.0352 2.58789 L 53.3203 -64.7461 C 53.0762 -66.6992 50.4395 -66.6992 50.0977 -64.7949 L 42.0898 -11.4746 L 34.4727 -47.9492 C 34.082 -49.7559 31.6895 -49.7559 31.2012 -47.9492 L 26.9531 -30.957 L 11.6699 -30.957 C 10.7422 -30.957 9.96094 -30.1758 9.96094 -29.248 C 9.96094 -28.3691 10.7422 -27.5391 11.6699 -27.5391 Z"/>
  </g>
  <g id="Ultralight-M" transform="matrix(1 0 0 1 488.959 1126)">
   <path d="M 11.1816 -28.0762 L 28.2715 -28.0762 C 28.8574 -28.0762 29.3945 -28.418 29.4922 -29.0039 L 32.8613 -42.1875 L 41.2109 -2.14844 C 41.5527 -0.732422 43.457 -0.683594 43.7012 -2.24609 L 51.6602 -55.3711 L 60.1074 18.7988 C 60.3027 20.2148 62.4023 20.2148 62.5488 18.7988 L 70.752 -73.4863 L 78.9551 18.6035 C 79.0527 20.1172 81.2012 20.166 81.3477 18.6035 L 89.7949 -55.3711 L 97.8027 -2.05078 C 98.0469 -0.634766 99.9512 -0.634766 100.244 -2.05078 L 108.643 -42.2363 L 111.963 -29.0039 C 112.109 -28.4668 112.646 -28.0762 113.184 -28.0762 L 130.322 -28.0762 C 131.006 -28.0762 131.543 -28.6621 131.543 -29.2969 C 131.543 -29.8828 131.006 -30.4688 130.322 -30.4688 L 114.16 -30.4688 L 109.717 -48.1445 C 109.424 -49.4629 107.52 -49.3652 107.275 -48.0957 L 99.2188 -9.22852 L 90.8203 -64.9414 C 90.6738 -66.3574 88.5742 -66.3574 88.4277 -64.8926 L 80.2734 6.49414 L 71.9727 -87.3535 C 71.8262 -88.8672 69.6289 -88.8672 69.5312 -87.3535 L 61.2305 6.49414 L 53.0762 -64.8926 C 52.8809 -66.4062 50.8789 -66.4062 50.6348 -64.9414 L 42.2363 -9.22852 L 34.1797 -47.998 C 33.8867 -49.4629 32.0312 -49.4629 31.6895 -47.998 L 27.2949 -30.4688 L 11.1816 -30.4688 C 10.498 -30.4688 9.96094 -29.8828 9.96094 -29.2969 C 9.96094 -28.6621 10.498 -28.0762 11.1816 -28.0762 Z"/>
  </g>
  <g id="Black-S" transform="matrix(1 0 0 1 2874.07 696)">
   <path d="M 12.6953 -25.293 L 24.4141 -25.293 C 26.123 -25.293 27.5391 -25.6348 28.6621 -26.2695 L 32.373 -7.17773 C 33.4473 -1.70898 41.2109 -1.70898 41.9922 -7.17773 L 43.8477 -20.1172 L 47.1191 10.791 C 47.7539 16.6504 56.3477 16.6504 56.8359 10.791 L 59.3262 -19.4824 L 61.8164 10.791 C 62.3047 16.6504 70.8984 16.6504 71.5332 10.791 L 74.8047 -20.1172 L 76.6602 -7.17773 C 77.4414 -1.70898 85.2051 -1.70898 86.2793 -7.17773 L 90.2344 -27.1973 C 91.6504 -25.9766 93.457 -25.293 95.5078 -25.293 L 105.957 -25.293 C 108.594 -25.293 110.84 -27.5391 110.84 -30.1758 C 110.84 -32.8125 108.594 -35.0586 105.957 -35.0586 L 96.3867 -35.0586 L 93.6523 -46.2891 C 92.4316 -51.3184 85.1074 -51.3184 84.1309 -46.2891 L 82.2754 -36.9141 L 78.9551 -60.0586 C 78.125 -65.7715 69.873 -65.7715 69.2871 -60.0586 L 67.334 -41.6016 L 64.209 -79.3945 C 63.7207 -85.3516 54.9316 -85.3516 54.4434 -79.3945 L 51.3184 -41.6016 L 49.3652 -60.0586 C 48.7793 -65.7715 40.5273 -65.7715 39.6973 -60.0586 L 36.377 -36.9141 L 34.5215 -46.2891 C 33.5449 -51.2695 26.2207 -51.2695 25 -46.2891 L 22.2656 -35.0586 L 12.6953 -35.0586 C 10.0586 -35.0586 7.8125 -32.8125 7.8125 -30.1758 C 7.8125 -27.5391 10.0586 -25.293 12.6953 -25.293 Z"/>
  </g>
  <g id="Heavy-S" transform="matrix(1 0 0 1 2578.49 696)">
   <path d="M 12.2559 -25.7812 L 23.7793 -25.7812 C 25.4883 -25.7812 26.9531 -26.2207 27.9785 -27.1484 L 31.8359 -7.76367 C 32.8125 -2.97852 39.7461 -2.97852 40.4297 -7.76367 L 42.8711 -24.3652 L 46.582 9.91211 C 47.168 15.1367 54.7852 15.1367 55.2246 9.91211 L 58.252 -25.7324 L 61.2793 9.91211 C 61.7188 15.1367 69.3359 15.1367 69.9219 9.91211 L 73.6816 -24.3652 L 76.123 -7.71484 C 76.8066 -2.97852 83.7402 -2.97852 84.668 -7.71484 L 88.7207 -27.8809 C 90.0391 -26.5137 91.748 -25.7812 93.7012 -25.7812 L 104.15 -25.7812 C 106.543 -25.7812 108.594 -27.832 108.594 -30.2246 C 108.594 -32.666 106.543 -34.7168 104.15 -34.7168 L 94.8242 -34.7168 L 92.041 -45.9961 C 90.918 -50.5371 84.4727 -50.5371 83.5449 -45.9961 L 81.1035 -33.9355 L 77.3438 -59.5215 C 76.6113 -64.6484 69.2871 -64.6484 68.75 -59.5215 L 66.2109 -36.2305 L 62.5977 -78.5156 C 62.1582 -83.8379 54.3457 -83.8379 53.9062 -78.5156 L 50.3418 -36.2305 L 47.8027 -59.5215 C 47.2656 -64.6484 39.9414 -64.6484 39.1602 -59.5215 L 35.4004 -33.9355 L 32.959 -45.9961 C 32.0801 -50.4395 25.5859 -50.4395 24.4629 -45.9961 L 21.6797 -34.7168 L 12.2559 -34.7168 C 9.86328 -34.7168 7.8125 -32.666 7.8125 -30.2246 C 7.8125 -27.832 9.86328 -25.7812 12.2559 -25.7812 Z"/>
  </g>
  <g id="Bold-S" transform="matrix(1 0 0 1 2283.02 696)">
   <path d="M 11.8164 -26.3672 L 23.0469 -26.3672 C 24.8535 -26.3672 26.3672 -27.0508 27.1484 -28.418 L 31.25 -8.34961 C 32.0801 -4.3457 38.0859 -4.3457 38.623 -8.34961 L 41.748 -29.0527 L 45.9961 8.93555 C 46.5332 13.4766 53.0762 13.4277 53.4668 8.93555 L 57.0801 -32.7637 L 60.6934 8.93555 C 61.084 13.4766 67.627 13.4766 68.1152 8.93555 L 72.4121 -29.0527 L 75.4883 -8.34961 C 76.0742 -4.3457 82.0801 -4.3457 82.8613 -8.34961 L 87.1094 -28.9062 C 88.1836 -27.1973 89.7949 -26.3672 91.6992 -26.3672 L 102.1 -26.3672 C 104.297 -26.3672 106.104 -28.1738 106.104 -30.3223 C 106.104 -32.5195 104.297 -34.3262 102.1 -34.3262 L 93.1152 -34.3262 L 90.2344 -45.6543 C 89.2578 -49.6094 83.7402 -49.6094 82.9102 -45.6543 L 79.7852 -30.6641 L 75.5371 -58.9355 C 74.9023 -63.3789 68.6035 -63.3301 68.1152 -58.9355 L 64.8926 -30.2734 L 60.8398 -77.5879 C 60.4492 -82.1777 53.7109 -82.1777 53.3203 -77.5879 L 49.2188 -30.2734 L 45.9961 -58.9355 C 45.5566 -63.3789 39.2578 -63.3789 38.5742 -58.9355 L 34.3262 -30.6641 L 31.2012 -45.6543 C 30.4688 -49.4629 24.8535 -49.4629 23.9258 -45.6543 L 21.0449 -34.3262 L 11.8164 -34.3262 C 9.61914 -34.3262 7.8125 -32.5195 7.8125 -30.3223 C 7.8125 -28.1738 9.61914 -26.3672 11.8164 -26.3672 Z"/>
  </g>
  <g id="Semibold-S" transform="matrix(1 0 0 1 1987.16 696)">
   <path d="M 11.4746 -26.7578 L 22.5586 -26.7578 C 24.1699 -26.7578 25.5371 -27.4902 26.123 -28.8574 L 26.4648 -29.834 L 30.8594 -8.78906 C 31.5918 -5.32227 36.9141 -5.32227 37.4023 -8.78906 L 40.9668 -32.3242 L 45.6055 8.25195 C 46.0449 12.3047 51.9043 12.2559 52.2461 8.25195 L 56.25 -37.5977 L 60.2539 8.25195 C 60.5957 12.3047 66.4551 12.3047 66.8945 8.25195 L 71.5332 -32.3242 L 75.0977 -8.78906 C 75.5859 -5.32227 80.9082 -5.32227 81.6406 -8.78906 L 86.1328 -30.0293 L 86.3281 -29.4434 C 87.1094 -27.5879 88.5742 -26.7578 90.332 -26.7578 L 100.684 -26.7578 C 102.734 -26.7578 104.395 -28.3691 104.395 -30.3711 C 104.395 -32.4219 102.734 -34.0332 100.684 -34.0332 L 91.8945 -34.0332 L 89.0137 -45.459 C 88.0859 -48.9746 83.2031 -48.9746 82.4707 -45.4102 L 78.9062 -28.3691 L 74.3164 -58.5449 C 73.7305 -62.5 68.1641 -62.4512 67.7246 -58.5449 L 64.0137 -26.123 L 59.6191 -76.9043 C 59.2773 -81.0059 53.2227 -81.0059 52.8809 -76.9043 L 48.4863 -26.123 L 44.7754 -58.5449 C 44.3359 -62.5 38.7695 -62.5 38.1836 -58.5449 L 33.5938 -28.3691 L 30.0293 -45.4102 C 29.2969 -48.8281 24.3652 -48.8281 23.4863 -45.4102 L 20.6055 -34.0332 L 11.4746 -34.0332 C 9.47266 -34.0332 7.8125 -32.4219 7.8125 -30.3711 C 7.8125 -28.3691 9.47266 -26.7578 11.4746 -26.7578 Z"/>
  </g>
  <g id="Medium-S" transform="matrix(1 0 0 1 1691.11 696)">
   <path d="M 11.2305 -27.0508 L 22.2168 -27.0508 C 23.584 -27.0508 24.8535 -27.7344 25.293 -29.1016 L 25.8789 -31.1035 L 30.5664 -9.13086 C 31.2012 -6.05469 36.0352 -6.05469 36.5234 -9.13086 L 40.3809 -34.8145 L 45.3125 7.76367 C 45.7031 11.4258 50.9766 11.377 51.3184 7.76367 L 55.6152 -41.2598 L 59.9609 7.76367 C 60.2539 11.4258 65.5273 11.4258 65.9668 7.76367 L 70.8496 -34.8145 L 74.7559 -9.13086 C 75.1953 -6.05469 80.0293 -6.05469 80.7129 -9.13086 L 85.4004 -31.2012 L 85.9375 -29.4434 C 86.5234 -27.7344 87.793 -27.0508 89.3066 -27.0508 L 99.6582 -27.0508 C 101.562 -27.0508 103.076 -28.5645 103.076 -30.4199 C 103.076 -32.3242 101.562 -33.8379 99.6582 -33.8379 L 91.0156 -33.8379 L 88.0371 -45.2637 C 87.207 -48.5352 82.8125 -48.5352 82.1777 -45.2637 L 78.2227 -26.6602 L 73.3887 -58.252 C 72.8516 -61.8652 67.8223 -61.7676 67.3828 -58.252 L 63.3301 -22.998 L 58.6914 -76.416 C 58.3496 -80.127 52.8809 -80.127 52.5879 -76.416 L 47.9004 -22.998 L 43.8477 -58.252 C 43.457 -61.8652 38.4277 -61.8652 37.8906 -58.252 L 33.0566 -26.6602 L 29.1016 -45.2637 C 28.4668 -48.3398 24.0234 -48.3398 23.1934 -45.2637 L 20.2637 -33.8379 L 11.2305 -33.8379 C 9.32617 -33.8379 7.8125 -32.3242 7.8125 -30.4199 C 7.8125 -28.5645 9.32617 -27.0508 11.2305 -27.0508 Z"/>
  </g>
  <g id="Regular-S" transform="matrix(1 0 0 1 1395.25 696)">
   <path d="M 10.9375 -27.4414 L 21.7285 -27.4414 C 22.8516 -27.4414 23.9258 -28.125 24.2188 -29.3945 L 25.0488 -33.1543 L 30.127 -9.57031 C 30.7129 -6.98242 34.9121 -6.98242 35.3027 -9.57031 L 39.6484 -38.0371 L 44.873 7.08008 C 45.2637 10.3027 49.8047 10.2539 50.0977 7.08008 L 54.834 -46.0449 L 59.5703 7.08008 C 59.8145 10.3027 64.3555 10.3027 64.7461 7.08008 L 69.9707 -38.0371 L 74.3652 -9.57031 C 74.707 -6.98242 78.9062 -6.98242 79.4922 -9.57031 L 84.5215 -32.8613 L 85.4492 -29.3945 C 85.791 -27.9297 86.8164 -27.4414 87.9395 -27.4414 L 98.2422 -27.4414 C 100 -27.4414 101.367 -28.7598 101.367 -30.4688 C 101.367 -32.2266 100 -33.5938 98.2422 -33.5938 L 89.8438 -33.5938 L 86.8164 -45.0195 C 86.084 -47.9004 82.3242 -47.9004 81.7383 -45.0195 L 77.2949 -24.3652 L 72.168 -57.8613 C 71.6797 -60.9863 67.334 -60.9375 66.9922 -57.8613 L 62.4512 -18.9453 L 57.4707 -75.7324 C 57.1777 -78.9551 52.4414 -78.9551 52.1973 -75.7324 L 47.168 -18.9453 L 42.6758 -57.8613 C 42.2852 -60.9863 37.9395 -60.9863 37.4512 -57.8613 L 32.3242 -24.3652 L 27.9297 -45.0195 C 27.3438 -47.7051 23.5352 -47.7051 22.8027 -45.0195 L 19.8242 -33.5938 L 10.9375 -33.5938 C 9.17969 -33.5938 7.8125 -32.2266 7.8125 -30.4688 C 7.8125 -28.7598 9.17969 -27.4414 10.9375 -27.4414 Z"/>
  </g>
  <g id="Light-S" transform="matrix(1 0 0 1 1098.27 696)">
   <path d="M 10.2539 -28.125 L 21.875 -28.125 C 22.7539 -28.125 23.6328 -28.6621 23.877 -29.6875 L 25.2441 -35.5469 L 30.8105 -9.47266 C 31.2988 -7.37305 34.668 -7.37305 34.9609 -9.52148 L 39.8926 -42.0898 L 45.6055 7.08008 C 45.8984 9.61914 49.5117 9.61914 49.7559 7.08008 L 55.0293 -52.0508 L 60.2539 7.03125 C 60.498 9.61914 64.1113 9.61914 64.4531 7.03125 L 70.1172 -42.0898 L 75.0488 -9.47266 C 75.3906 -7.32422 78.7109 -7.32422 79.1992 -9.47266 L 84.7168 -35.3027 L 86.1328 -29.6875 C 86.4258 -28.5645 87.2559 -28.125 88.1836 -28.125 L 99.4629 -28.125 C 100.83 -28.125 101.904 -29.1992 101.904 -30.5176 C 101.904 -31.8359 100.83 -32.9102 99.4629 -32.9102 L 89.6973 -32.9102 L 86.5723 -45.1172 C 85.9863 -47.4121 82.9102 -47.4121 82.4707 -45.1172 L 77.4414 -21.3867 L 71.875 -58.0566 C 71.4844 -60.5469 68.0176 -60.498 67.6758 -58.0566 L 62.5977 -13.8184 L 57.1289 -75.8301 C 56.8848 -78.418 53.125 -78.418 52.8809 -75.8301 L 47.4121 -13.8184 L 42.334 -58.0566 C 42.041 -60.5957 38.5254 -60.5957 38.1836 -58.0566 L 32.5684 -21.3867 L 27.5879 -45.0684 C 27.0996 -47.2656 24.0234 -47.2656 23.4375 -45.0684 L 20.3125 -32.9102 L 10.2539 -32.9102 C 8.88672 -32.9102 7.8125 -31.8359 7.8125 -30.5176 C 7.8125 -29.1992 8.88672 -28.125 10.2539 -28.125 Z"/>
  </g>
  <g id="Thin-S" transform="matrix(1 0 0 1 801.222 696)">
   <path d="M 9.375 -29.0039 L 22.0215 -29.0039 C 22.6562 -29.0039 23.291 -29.3945 23.4375 -30.0781 L 25.5371 -38.6719 L 31.6895 -9.375 C 32.0312 -7.86133 34.3262 -7.86133 34.5703 -9.42383 L 40.2344 -47.4609 L 46.4844 7.08008 C 46.6797 8.78906 49.1699 8.78906 49.3164 7.08008 L 55.2734 -59.9121 L 61.2305 6.98242 C 61.377 8.74023 63.8184 8.74023 64.0137 6.98242 L 70.2637 -47.4609 L 76.0254 -9.32617 C 76.2695 -7.8125 78.4668 -7.8125 78.8086 -9.32617 L 84.9609 -38.5254 L 87.1094 -30.0781 C 87.2559 -29.3457 87.8418 -29.0039 88.4766 -29.0039 L 101.025 -29.0039 C 101.904 -29.0039 102.588 -29.7363 102.588 -30.5176 C 102.588 -31.3477 101.904 -32.0801 101.025 -32.0801 L 89.5508 -32.0801 L 86.2305 -45.2637 C 85.8398 -46.7773 83.7402 -46.7773 83.3984 -45.2148 L 77.6367 -17.4805 L 71.4355 -58.3008 C 71.2402 -60.0098 68.8477 -59.9609 68.6523 -58.3008 L 62.793 -7.03125 L 56.6895 -75.9766 C 56.543 -77.7344 54.0039 -77.7344 53.8574 -75.9766 L 47.7539 -7.03125 L 41.8945 -58.3008 C 41.6992 -60.0098 39.3555 -60.0098 39.0625 -58.3008 L 32.9102 -17.4805 L 27.0996 -45.166 C 26.7578 -46.7285 24.6582 -46.7285 24.2676 -45.166 L 20.9473 -32.0801 L 9.375 -32.0801 C 8.49609 -32.0801 7.8125 -31.3477 7.8125 -30.5176 C 7.8125 -29.7363 8.49609 -29.0039 9.375 -29.0039 Z"/>
  </g>
  <g id="Ultralight-S" transform="matrix(1 0 0 1 504.34 696)">
   <path d="M 8.88672 -29.4922 L 22.168 -29.4922 C 22.6074 -29.4922 23.0957 -29.7852 23.1934 -30.2734 L 25.6836 -40.2344 L 32.1777 -9.32617 C 32.4219 -8.1543 34.1309 -8.10547 34.3262 -9.375 L 40.4297 -50.1953 L 46.9727 7.08008 C 47.1191 8.34961 48.9746 8.34961 49.0723 7.08008 L 55.3711 -63.9648 L 61.7188 6.93359 C 61.8164 8.25195 63.6719 8.30078 63.8184 6.93359 L 70.3613 -50.1953 L 76.5137 -9.22852 C 76.709 -8.05664 78.3691 -8.05664 78.6133 -9.22852 L 85.0586 -40.1855 L 87.5977 -30.2734 C 87.6953 -29.7852 88.1836 -29.4922 88.623 -29.4922 L 101.855 -29.4922 C 102.441 -29.4922 102.93 -30.0293 102.93 -30.5664 C 102.93 -31.1035 102.441 -31.6406 101.855 -31.6406 L 89.4531 -31.6406 L 86.0352 -45.3613 C 85.7422 -46.4844 84.1309 -46.4355 83.9355 -45.3125 L 77.7344 -15.4297 L 71.2402 -58.4473 C 71.0938 -59.668 69.2871 -59.668 69.1406 -58.3984 L 62.8906 -3.56445 L 56.4453 -76.0742 C 56.3477 -77.3926 54.4434 -77.3926 54.3457 -76.0742 L 47.9004 -3.56445 L 41.6504 -58.3984 C 41.5039 -59.7168 39.7461 -59.7168 39.5508 -58.4473 L 33.0566 -15.4297 L 26.8555 -45.2148 C 26.6113 -46.4355 25 -46.4355 24.707 -45.2148 L 21.2891 -31.6406 L 8.88672 -31.6406 C 8.30078 -31.6406 7.8125 -31.1035 7.8125 -30.5664 C 7.8125 -30.0293 8.30078 -29.4922 8.88672 -29.4922 Z"/>
  </g>
 </g>
</svg>
